<svg height='300px' width='300px'  fill="#E60000" xmlns="http://www.w3.org/2000/svg" xmlns:xlink="http://www.w3.org/1999/xlink" version="1.1" x="0px" y="0px" viewBox="0 0 100 100" style="enable-background:new 0 0 100 100;" xml:space="preserve"><style type="text/css">
	.st0{fill:#E60000;}
	.st1{fill:#E60000;}
</style><path d="M78,33C78,17.5,65.5,5,50,5S22,17.5,22,33c0,0.1,0,0.3,0,0.4h0c0,1.1,0.1,2.4,0.3,3.8c0,0.1,0,0.1,0,0.2  C25.2,55.9,45.1,92,45.1,92l0,0c0.9,1.8,2.8,3,4.9,3s4-1.2,4.9-3l0,0c0,0,19.9-36.1,22.7-54.7c0-0.1,0-0.1,0-0.2  c0.2-1.4,0.3-2.6,0.3-3.8h0C78,33.3,78,33.1,78,33z M50,48.5c-8.3,0-15-6.7-15-15c0-8.3,6.7-15,15-15s15,6.7,15,15  C65,41.8,58.3,48.5,50,48.5z"></path></svg>